<svg version="1" xmlns="http://www.w3.org/2000/svg" width="973.333" height="973.333" viewBox="0 0 730.000000 730.000000"><path d="M103.8 7.6c-.4.3-2.1.8-4 1.1-5.2.8-14.7 4.3-21.8 8C62.2 25.1 49.7 38.8 42.4 56c-5.3 12.3-6.5 20.3-6.6 45.9l-.1 22.7-8 .3c-4.4.1-8.9.7-9.9 1.2-3 1.6-5 6.6-4.7 12.2.6 9.9 3.8 12.4 15.5 12.3l7.1-.1.1 33.2c0 24.4-.3 33.3-1.2 33.4-.6 0-4.4.2-8.4.3-9.2.3-12.2 2.7-13 10.5-.6 6.5.3 9.7 3.5 12.7 2.3 2.1 3.5 2.4 10.4 2.4 7.3 0 7.9.1 8.3 2.2.3 1.3.4 16.2.3 33.3l-.2 31-5.5.1c-13.3.2-16.2 2.3-16.8 12-.7 10.3 2.8 13.8 14.3 14.1 3.8.1 7.3.2 7.6.2.4.1.6 15.1.5 33.3l-.1 33.2-8.4.1c-8.1.1-8.4.1-11.2 3.3-2.5 2.8-2.9 4.1-2.9 9 0 6.5 2.6 11.8 6.2 12.7 1.3.3 5.5.7 9.3.8l7 .2.1 33.3.2 33.2-7.2-.1c-8.7-.1-12 1.1-14.1 5-1.9 3.7-2 12-.1 15.6 2.1 4 5.2 5.1 13.7 5.1l7.6-.1v33.3c.1 18.2-.2 33.2-.6 33.3-.3 0-4.1.2-8.5.3-7.4.2-8 .4-10.5 3.2-2.1 2.4-2.8 4.2-3 8.4-.5 10.8 3 14.1 14.8 14.2l7.8.1v17.1c.1 19.5 1 29 3.4 35.3.6 1.5 1 2.9 1 3-.4 2.4 8 18.3 12.9 24.5 12.1 15.1 27.5 24.7 47.5 29.3 3.7.9 17.9 1.7 28 1.6 11.4-.1 12.6-.1 15.8 0 1.2.1 4.2.1 6.7 0s7.8-.1 11.8.1c3.9.2 7.2-.1 7.2-.5 0-.5.4-.6.9-.3.7.5 6.8.7 14.1.5.8 0 3.6.1 6.3.3 2.6.2 4.7 0 4.7-.4s.6-.5 1.4-.2c2.3.9 52.6 1 52.6.1 0-.5.4-.6.9-.3s3.7.6 7.2.6h8.4c16.4.4 25.5.4 25.5-.2 0-.4.6-.5 1.4-.2 2.3.9 36.6 1 36.6.1 0-.5.5-.5 1-.2.6.4 4.1.6 7.8.5 7.9-.2 6.9-.2 16 .2 3.9.2 7.2-.1 7.2-.5 0-.5.5-.5 1-.2.6.4 4.1.6 7.8.5 7.8-.2 7.4-.2 13 .2 2.3.2 4.2 0 4.2-.3s1.9-.3 4.3.1c2.4.3 5.5.3 7-.1s2.7-.4 2.7-.1c0 .6 93.7.7 96.5.2.6-.1 2.1-.1 3.4 0 6.5.5 14.1.4 14.1-.2 0-.4.6-.5 1.4-.2 2.3.9 52.6 1 52.6.1 0-.5.4-.6.9-.3s3.7.6 7.2.6h8.4c18.2.4 25.5.4 25.5-.3 0-.5.5-.5 1-.2 1.3.8 31.6.8 40.7 0 8.9-.7 16.7-2.9 25.3-7.2 20-9.8 33.6-27.1 38.6-49 1.7-7.4 1.8-24.1 1.7-300.8 0-161.2-.3-294.6-.6-296.5-.4-1.9-.9-5.4-1.3-7.8-.3-2.3-1-4.5-1.5-4.8-.5-.3-.9-1.3-.9-2.2 0-2.4-6.5-14.8-10.3-19.6C694.1 22.2 681 13.7 664 9.1c-7.4-2-10-2-283.6-2.1-151.8 0-276.3.3-276.6.6zm10 357.7l-.3 334.2-4-.2c-15.9-.9-34.3-13.1-42.2-27.9-4.7-8.7-6.4-14.8-7-23.8-.5-9.1-.5-8.5-.4-14.6.1-5.4.1-12.3.1-16.7 0-1.8.1-3.3.4-3.3.2 0 2 1.6 4 3.5 5.5 5.3 9.2 6.9 16.6 6.9 7.4 0 12.3-1.9 16.9-6.6 12.8-13.1 6.8-34.7-10.9-39.5-3.1-.9-9.9-.5-13.6.7-2.1.7-6 3.3-8.6 5.8l-4.9 4.6.1-3.5c.1-1.9.1-13.8 0-26.4 0-12.7-.1-26.6 0-31v-7.9l3.5 3.6c5.6 5.8 11.7 8.1 19.5 7.6 12.5-.9 20.9-9.3 21.5-21.6.4-7.3-1.8-13.2-6.8-18.1-9.5-9.4-24.4-9.1-33.4.6-1.8 1.9-3.7 3.2-4.3 2.8-.6-.3-.8-1-.5-1.5.3-.4.5-2.5.5-4.7v-8.1-6c0-.9.1-3.7.1-6.2s.1-5 0-5.5c-.1-2.2-.1-11.8 0-18.5v-6c-.2-3.4-.1-9.4.2-9.6.1-.2 2 1.3 4 3.3 4.1 3.8 12 7.3 16.5 7.3 5.4 0 12.8-2.9 16.5-6.5 12.1-11.8 8.8-32.3-6.3-38.5-9.3-3.9-17.9-2.5-25.3 4.1-4.9 4.2-6.9 4.4-6.1.6.2-1.2.4-3.3.4-4.7.1-4.5.2-49.5.1-51-.3-3.5-.1-6.4.4-6.9.3-.2 2.3 1.2 4.4 3.3 11.2 11 28.8 8.6 36.7-5 9-15.4-2.2-34.7-20.2-34.8-7.1 0-11.7 1.9-16.8 6.9-4.2 4-4.5 4.1-4.5 1.7-.1-.9-.2-2.8-.2-4.2-.1-1.4-.1-4.5 0-7 .1-3.9.1-7 .1-14.8 0-.9.1-3.7.1-6.2s.1-5 0-5.5c0-1.1-.1-8.6-.1-12 0-1.1 0-4.9.1-8.5 0-3.5.2-6.6.4-6.9.3-.2 1.4.8 2.6 2.2 3.7 4.8 10.6 8.1 16.8 8.1 9.1.1 11.6-.8 17.5-6.2 5.3-4.8 6.9-8.7 6.9-16.2 0-3.6-.2-7.2-.4-8.1-1.4-5-8.1-12.1-13.8-14.5-8-3.3-20.2-.6-25.5 5.7-3.8 4.5-6.1 3.3-4.6-2.2.5-1.5.4-3.2 0-4-.5-.7-.7-1.6-.5-1.9.5-.8.6-4.2.6-27 0-10.2.1-19 .1-19.5 0-.6-.1-1.5-.2-2-.1-.6-.2-2.6-.1-4.5l.1-3.4 3.6 3.6c14.9 15.4 38.8 7.4 41.1-13.9 1.5-13.5-11.4-26-25.6-24.8-6 .5-10.4 2.6-14.9 7.2-1.8 1.9-3.5 3.3-3.7 3.1-.5-.4-.6-6-.4-16.8 0-2.5.1-5 0-5.5-.9-15.4 1.1-32.2 4.7-37.9.3-.6.7-1.6.8-2.3.3-2 6.6-10.6 11-14.9 4.2-4.3 14.5-11.3 17.3-11.9.9-.2 3-.9 4.6-1.5 1.7-.7 4.6-1.4 6.5-1.7 1.9-.3 3.6-.6 3.7-.7.1-.1 1.3-.2 2.7-.4l2.6-.2-.2 334.3zM503.4 32.6c18.6 3.9 33 14.1 40 28.4 1.7 3.6 3.1 7.2 3.1 8-.1.8.2 1.9.5 2.5.3.5.6 133.1.5 294.5-.1 283.4-.2 293.7-1.9 299-5.4 15.7-18.9 27.2-38.6 32.6-5.8 1.6-12.1 1.8-56 2-27.2.1-51.1.3-53 .4-3 .1-86.6.2-91.2 0-1 0-2.4 0-3-.1-.7-.1-3.1-.1-5.3 0-4.6.1-25.2.3-27.5.2-.8-.1-6.2-.1-12 0h-12c-.8-.1-6.2-.1-12 0h-12c-.8-.1-6.2-.1-12 0h-12c-.8 0-14.8-.1-31.1-.1l-29.6-.1V31h179.1c152 .1 180.1.3 186 1.6zm159.1.8C677.2 39 687.9 50 693.1 65l2.2 6.5v292c0 160.6-.2 293.8-.6 296-1.4 9.6-7.5 20.8-15.2 27.9-3.6 3.3-11.9 8.2-17 10.1-4.6 1.6-12.2 2.2-36.2 2.5-6.3 0-25.7.1-27.3.1-11.1-.3-25.2-.2-25.6.2-.3.3-1.8.1-3.4-.3-1.6-.4-3-.7-3.2-.5-.4.4-6.3.6-10.3.4-4.3-.2-4.7-.8-1.9-3.6 7.6-8 14.4-21.9 16.1-33.3.4-2.5.7-137 .7-299 0-239.7-.2-295.5-1.3-300-1.8-7.6-7.2-18.7-12.2-25.1-2.3-3-4.7-6-5.2-6.7-.8-1.1 8.6-1.2 51.9-1 48.8.3 53.3.5 57.9 2.2z"/><path d="M342.3 251.5c-2 .9-3.8 2.7-4.7 4.7-1.2 2.7-7.8 26.8-9.1 33-.2 1-1.6 6.2-3.1 11.5-2.9 10.7-9.2 34.7-9.9 37.7-.2 1-3.2 12.2-6.5 25-3.4 12.7-7.5 28.2-9.1 34.5-4 15-3.2 19.2 4 21.9 7 2.6 12.1-2.6 14.6-14.8.2-.8.4-1.5.5-1.5.2 0 .5-1.2 1.3-5 .3-1.1 1-4 1.7-6.5s1.4-5.2 1.5-6c.2-.8.4-1.5.5-1.5.1 0 .3-.7.5-1.5.1-.8 1.3-5.3 2.5-10s2.3-9 2.5-9.5c.1-.6.5-1.7.8-2.5.3-.8 2.2-8 4.3-16 2-8 4.8-18.6 6.1-23.5 1.3-5 2.6-9.7 2.8-10.5.7-3 6.4-24.6 7.4-27.8.5-1.7.8-3.2.5-3.2-.3 0 0-.8.5-1.8.6-1.1 1.3-3.2 1.6-4.8.3-1.6.7-3.4.9-3.9 2.4-8.4 2.6-10.3.9-13.7-1.3-2.7-5.9-5.8-8.5-5.8-.7.1-2.8.7-4.5 1.5zM256.5 281.4c-4.2 1.9-51.2 49.6-51.3 52.1 0 1.1.2 3.1.4 4.5.7 3.2 46.7 49.7 51 51.6 3.8 1.6 7.1.9 10.6-2.3 3.1-2.9 4-6.7 2.5-10.2-.6-1.4-9.8-11.3-20.4-21.9-10.6-10.6-19.3-19.6-19.3-20 0-.4 8.8-9.5 19.5-20.2 21.5-21.4 22.6-23 19.2-29.2-1.9-3.4-2.9-4.1-7.7-5.3-.8-.2-2.8.2-4.5.9zM386.3 281.4c-2.8 1.4-5.9 5.7-5.8 7.6.1.8.3 2.5.3 3.8.1 1.5 6.9 9 20.2 22.4l20.1 20.1-2.8 2.9c-1.5 1.7-10.5 10.7-19.9 20.1-10.7 10.8-17.4 18.2-17.8 19.9-.4 1.7 0 4.2.8 6.2 2.4 5.7 8.8 7.7 14.1 4.2 4.5-3 48.4-47.8 49.2-50.3.6-1.6.7-4 .3-5.4-.9-3.3-49.3-51.9-51.7-52-1 0-2.5-.2-3.4-.4-.8-.1-2.5.2-3.6.9zM654 56.7c-.1 4.9-.1 251.8 0 255.9 0 2.6.4 3 2.3 2.9l2.2-.2.3-129.3c.2-119.3.1-129.5-1.5-131.2-2.4-2.7-3.3-2.2-3.3 1.9zM626.9 108.5c-.4 6.2-.4 86.3-.1 87.8.3 1.2 1.2 1.7 2.6 1.5l2.1-.3.1-44.5c0-24.5-.1-45-.4-45.7-.6-2-4.2-1.1-4.3 1.2zM626.9 295.2c-.1.7-.2 89.8-.3 198.1l-.1 196.7h5.1l-.2-197.2c-.1-108.5-.2-197.6-.3-198.1-.2-1.2-4.1-.8-4.2.5zM653.9 437.2c-.3 25 .1 86.1.5 86.6.4.3 1.5.6 2.6.7 2 .2 2-.6 2-45.7V433h-2.5c-2.3 0-2.5.4-2.6 4.2zM596.4 511.1c-.4.7-.8 41.2-.8 90.2-.1 92-.1 91.9 3.8 90.4 1.2-.5 1.4-14 1.2-90.9-.1-83.2-.2-90.3-1.8-90.6-.9-.2-2 .2-2.4.9z"/></svg>